<?xml version="1.0" encoding="UTF-8"?>
<svg xmlns="http://www.w3.org/2000/svg" xmlns:xlink="http://www.w3.org/1999/xlink" version="1.1" width="3161.963190184049" height="913.8467806657475" viewBox="0 0 3161.963190184049 913.8467806657475">
  <g transform="scale(8.098159509202453) translate(10, 10)">
    <defs id="SvgjsDefs1212"></defs>
    <g id="SvgjsG1213" transform="matrix(2.1931835416460577,0,0,2.1931835416460577,-12.015139311462985,-38.744777066721426)" fill="#cf7446">
      <path d="M30.527 60 l-13.154 -17.988 l-3.1055 0 l0 17.988 l-8.7891 0 l0 -42.334 l8.7891 0 l0 16.641 l2.9883 0 l13.271 -16.641 l10.723 0 l-16.406 20.244 l16.904 22.09 l-11.221 0 z"></path>
    </g>
    <g id="SvgjsG1214" transform="matrix(1.275184262280191,0,0,1.275184262280191,95.34200742875332,-5.520176710115566)" fill="#111111">
      <path d="M20.352 40 l-8.7695 -11.992 l-2.0703 0 l0 11.992 l-5.8594 0 l0 -28.223 l5.8594 0 l0 11.094 l1.9922 0 l8.8477 -11.094 l7.1484 0 l-10.938 13.496 l11.27 14.727 l-7.4805 0 z M54.55071875 40 l-2.0508 -5.8203 l-11.855 0 l-2.0508 5.8203 l-5.9961 0 l10.391 -28.223 l7.168 0 l10.391 28.223 l-5.9961 0 z M42.363718750000004 29.277 l8.418 0 l-4.1992 -11.973 z M77.792625 40.39063 c-6.0547 0 -10.781 -2.9102 -11.641 -8.2031 l6.0547 -1.3867 c0.39063 3.1641 2.7148 4.8047 5.8203 4.8047 c2.3828 0 4.2773 -1.0547 4.2578 -3.4375 c-0.019531 -2.6563 -3.1445 -3.4961 -6.582 -4.5508 c-4.1406 -1.2891 -8.5742 -2.8125 -8.5742 -8.0078 c0 -5.2539 4.2969 -8.2227 9.9609 -8.2227 c4.9609 0 9.9609 2.0117 11.094 7.4219 l-5.6641 1.4063 c-0.52734 -2.8125 -2.4219 -4.043 -5.0781 -4.043 c-2.3633 0 -4.375 0.97656 -4.375 3.3008 c0 2.168 2.7734 2.8906 5.9766 3.8477 c4.2578 1.2891 9.2969 2.9297 9.2969 8.5547 c0 5.9961 -5.0195 8.5156 -10.547 8.5156 z M115.17546875 11.777000000000001 l5.8594 0 l0 28.223 l-5.8594 0 l0 -11.602 l-11.934 0 l0 11.602 l-5.8594 0 l0 -28.223 l5.8594 0 l0 11.523 l11.934 0 l0 -11.523 z M164.3163125 40 l-5.8398 0 l-1.8555 -21.27 l-7.1484 21.27 l-3.7891 0 l-7.1484 -21.27 l-1.875 21.27 l-5.8594 0 l2.3633 -28.223 l8.3594 0 l6.0156 17.715 l6.0938 -17.715 l8.3594 0 z M174.0819875 40 l0 -28.223 l5.8594 0 l0 28.223 l-5.8594 0 z M209.74603125 40 l-2.0508 -5.8203 l-11.855 0 l-2.0508 5.8203 l-5.9961 0 l10.391 -28.223 l7.168 0 l10.391 28.223 l-5.9961 0 z M197.55903125 29.277 l8.418 0 l-4.1992 -11.973 z"></path>
    </g>
    <g id="SvgjsG1215" transform="matrix(1.0393460758194843,0,0,1.0393460758194843,96.20472399006721,43.759621812215045)" fill="#111111">
      <path d="M21.445 11.777000000000001 l5.8594 0 l0 28.223 l-5.8594 0 l0 -11.602 l-11.934 0 l0 11.602 l-5.8594 0 l0 -28.223 l5.8594 0 l0 11.523 l11.934 0 l0 -11.523 z M57.12884375 40 l-2.0508 -5.8203 l-11.855 0 l-2.0508 5.8203 l-5.9961 0 l10.391 -28.223 l7.168 0 l10.391 28.223 l-5.9961 0 z M44.941843750000004 29.277 l8.418 0 l-4.1992 -11.973 z M90.27375 11.777000000000001 l5.8398 0 l0 28.223 l-6.7773 0 l-12.5 -20.176 l0 20.176 l-5.8398 0 l0 -28.223 l6.6992 0 l12.578 20.059 l0 -20.059 z M107.0507375 40 l0 -28.223 l10.215 0 c9.0039 0 13.457 5.6641 13.457 14.102 c0 8.457 -4.4531 14.121 -13.457 14.121 l-10.215 0 z M112.9101375 34.8242 l4.0625 0 c5.1953 0 7.5781 -3.2422 7.5781 -8.9453 s-2.3828 -8.9453 -7.5781 -8.9453 l-4.0625 0 l0 17.891 z M172.18740625 40 l-5.8398 0 l-1.8555 -21.27 l-7.1484 21.27 l-3.7891 0 l-7.1484 -21.27 l-1.875 21.27 l-5.8594 0 l2.3633 -28.223 l8.3594 0 l6.0156 17.715 l6.0938 -17.715 l8.3594 0 z M200.83978125 40 l-2.0508 -5.8203 l-11.855 0 l-2.0508 5.8203 l-5.9961 0 l10.391 -28.223 l7.168 0 l10.391 28.223 l-5.9961 0 z M188.65278125 29.277 l8.418 0 l-4.1992 -11.973 z M214.7069875 40 l0 -28.223 l10.215 0 c9.0039 0 13.457 5.6641 13.457 14.102 c0 8.457 -4.4531 14.121 -13.457 14.121 l-10.215 0 z M220.5663875 34.8242 l4.0625 0 c5.1953 0 7.5781 -3.2422 7.5781 -8.9453 s-2.3828 -8.9453 -7.5781 -8.9453 l-4.0625 0 l0 17.891 z M263.86765625 16.934 l-10.469 0 l0 6.4063 l9.2773 0 l0 5.0977 l-9.2773 0 l0 6.3867 l10.469 0 l0 5.1758 l-16.367 0 l0 -28.223 l16.367 0 l0 5.1563 z"></path>
    </g>
  </g>
</svg>
